M48
;DRILL file {KiCad 4.0.2+dfsg1-stable} date tor 15 dec 2016 10:49:33
;FORMAT={-:-/ absolute / metric / decimal}
FMAT,2
METRIC,TZ
T1C0.400
T2C1.016
T3C2.200
%
G90
G05
M71
T1
X174.Y-112.5
X178.Y-113.75
X179.25Y-123.
X181.75Y-123.
X182.5Y-117.5
X183.5Y-101.
X183.5Y-116.25
X187.75Y-135.75
X190.25Y-104.5
X190.5Y-127.75
X191.Y-125.5
X192.5Y-115.
X192.5Y-126.5
X194.5Y-129.
X195.Y-112.5
X195.Y-115.75
X195.Y-124.25
X198.Y-118.
X198.25Y-120.5
X204.Y-111.75
T2
X172.71Y-114.92
X172.71Y-117.46
X172.71Y-120.
X175.25Y-114.92
X175.25Y-117.46
X175.25Y-120.
X177.5Y-124.46
X177.5Y-129.54
X179.25Y-116.
X179.25Y-119.
X180.04Y-127.
X184.5Y-131.21
X184.5Y-133.75
X187.04Y-131.21
X187.04Y-133.75
X189.58Y-131.21
X189.58Y-133.75
X192.12Y-131.21
X192.12Y-133.75
X203.Y-113.63
X203.Y-116.17
X203.Y-118.71
X203.Y-121.25
T3
X177.Y-106.75
X202.Y-128.25
T0
M30
